<?xml version="1.0" standalone="no"?>
<!DOCTYPE svg PUBLIC "-//W3C//DTD SVG 20010904//EN"
 "http://www.w3.org/TR/2001/REC-SVG-20010904/DTD/svg10.dtd">
<svg version="1.0" xmlns="http://www.w3.org/2000/svg"
 width="700.000000pt" height="700.000000pt" viewBox="0 0 700.000000 700.000000"
 preserveAspectRatio="xMidYMid meet">
<metadata>
Created by potrace 1.14, written by Peter Selinger 2001-2017
</metadata>
<g transform="translate(0.000000,700.000000) scale(0.100000,-0.100000)"
fill="#000000" stroke="none">
<path d="M0 5250 l0 -1750 1750 0 1750 0 0 -1750 0 -1750 1750 0 1750 0 0
1750 0 1750 -1750 0 -1750 0 0 1750 0 1750 -1750 0 -1750 0 0 -1750z m1974
1294 c544 -95 975 -526 1070 -1070 21 -116 21 -333 0 -449 -95 -543 -526 -974
-1070 -1069 -115 -21 -333 -21 -448 0 -274 48 -527 183 -721 385 -101 105
-163 192 -226 316 -96 189 -139 371 -139 594 0 274 68 502 217 727 67 101 198
241 297 317 156 119 370 214 561 248 110 20 348 21 459 1z"/>
<path d="M1516 3044 c-266 -48 -515 -183 -709 -383 -186 -193 -307 -427 -352
-685 -20 -115 -20 -337 0 -452 44 -253 162 -486 341 -674 200 -210 452 -346
728 -395 115 -20 337 -20 452 0 276 48 527 185 726 394 140 146 230 296 293
484 47 142 65 255 65 417 0 162 -18 275 -65 417 -63 188 -153 338 -293 484
-199 209 -450 346 -726 394 -111 19 -352 19 -460 -1z"/>
</g>
</svg>
